<?xml version="1.0" encoding="UTF-8"?>
<!DOCTYPE svg PUBLIC "-//W3C//DTD SVG 1.1//EN" "http://www.w3.org/Graphics/SVG/1.1/DTD/svg11.dtd">
<!-- Creator: CorelDRAW 2020 (64-Bit) -->
<svg xmlns="http://www.w3.org/2000/svg" xml:space="preserve" width="200mm" height="300mm" version="1.1" style="shape-rendering:geometricPrecision; text-rendering:geometricPrecision; image-rendering:optimizeQuality; fill-rule:evenodd; clip-rule:evenodd"
viewBox="0 0 20000 30000"
 xmlns:xlink="http://www.w3.org/1999/xlink"
 xmlns:xodm="http://www.corel.com/coreldraw/odm/2003">
 <defs>
  <style type="text/css">
   <![CDATA[
    .str0 {stroke:black;stroke-width:423.33;stroke-miterlimit:22.9256}
    .fil0 {fill:none}
    .fil1 {fill:black}
   ]]>
  </style>
 </defs>
 <g id="Capa_x0020_1">
  <metadata id="CorelCorpID_0Corel-Layer"/>
  <rect class="fil0 str0" x="3937.97" y="8085.32" width="11500.56" height="11218.34"/>
  <g id="_2059711193040">
   <path class="fil1" d="M7298.78 12005.18c-426.17,-0.38 -582.54,-23.64 -879.2,193.65 -179,131.1 -337.03,388.29 -338.65,730.81 -0.13,331.12 -0.13,662.23 -0.13,993.34 0,486.05 -69.76,1139.22 648.57,1355.16 215.85,64.89 712.36,74.08 871.49,-63.81 -86.46,-248.19 -205.46,-523.31 -232.66,-833.28 952.25,-256.92 1637.01,-963.38 2046.59,-1789.29 38.38,-77.39 135.25,-318.32 179.04,-374 68.48,92.52 129.41,243.01 182.91,350.11 58.02,116.16 129.59,240.22 200.71,355.31 144.71,234.2 313.59,456.46 483.97,628.76 338.64,342.43 781.86,653.13 1360.35,866.79 -40.07,380.95 -190.75,685.63 -201.9,795.6 195.17,127.04 343.97,98.48 596.38,98.43 299.41,0.28 518.92,-145.81 655.93,-297.09 164.22,-181.34 236.62,-389.6 237.13,-715.21l0.15 -1231.75c0,-391.21 -86.69,-650.59 -297.72,-834.01 -272.29,-236.66 -482.08,-218.23 -923.85,-228.29 -410.68,-803.58 -1300.33,-1556.67 -2509.96,-1434.76 -456.21,45.98 -838.46,170.04 -1215.17,430.26 -481.78,332.81 -599.46,564.43 -863.98,1003.27z"/>
   <path class="fil1" d="M10480.79 14229.18c175.64,-43.66 370.04,54.27 372.31,209.68 2.47,168.43 -131.49,307.26 -268.99,338.74 -438.14,100.3 -523.56,-443.96 -103.32,-548.42zm-1928.35 0.13c370.16,-76.72 625.4,445.63 222.46,545.62 -394.13,97.82 -645.56,-457.92 -222.46,-545.62zm-1036.07 269.81c16.89,220.44 151.81,540.38 246.96,717.39 387.02,719.97 985.39,1040.62 1890.09,1039.86 863.13,-0.73 1444.33,-380.32 1776.1,-1053.32 86.07,-174.61 214.35,-518.39 230.51,-723.32 -700.2,-191.33 -1341.96,-727.2 -1709.78,-1290.68 -122.54,-187.71 -324.21,-619.9 -359.01,-657.13 -203.15,536.29 -458.99,829.31 -813.68,1210.8 -235.34,253.13 -575.68,446.91 -902.76,606.66 -102.28,49.96 -271.71,96.54 -358.43,149.74z"/>
  </g>
 </g>
</svg>
