<?xml version="1.0" encoding="UTF-8"?>
<!DOCTYPE svg PUBLIC "-//W3C//DTD SVG 1.1//EN" "http://www.w3.org/Graphics/SVG/1.1/DTD/svg11.dtd">
<!-- Creator: CorelDRAW 2020 (64-Bit) -->
<svg xmlns="http://www.w3.org/2000/svg" xml:space="preserve" width="200mm" height="300mm" version="1.1" style="shape-rendering:geometricPrecision; text-rendering:geometricPrecision; image-rendering:optimizeQuality; fill-rule:evenodd; clip-rule:evenodd"
viewBox="0 0 20000 30000"
 xmlns:xlink="http://www.w3.org/1999/xlink"
 xmlns:xodm="http://www.corel.com/coreldraw/odm/2003">
 <defs>
  <style type="text/css">
   <![CDATA[
    .str0 {stroke:black;stroke-width:423.33;stroke-miterlimit:22.9256}
    .fil0 {fill:none}
    .fil1 {fill:black}
   ]]>
  </style>
 </defs>
 <g id="Capa_x0020_1">
  <metadata id="CorelCorpID_0Corel-Layer"/>
  <rect class="fil0 str0" x="3937.97" y="8085.32" width="11500.56" height="11218.34"/>
  <g id="_2059721680992">
   <path class="fil1" d="M10250.44 16119.23c-53.34,-335.5 446.92,-379.34 488.17,-77.39 44.54,326.12 -439.6,382.9 -488.17,77.39zm-1750.74 0c-53.84,-330.27 444.86,-392.62 486.32,-79.87 44.34,334.48 -438.01,376.23 -486.32,79.87zm262.14 -1213.2c412.88,-117.75 345.29,271.68 -36.8,368.7 -400.47,101.68 -368.99,-252.96 36.8,-368.7zm1500.08 -3.09c257.32,-111.71 722.96,270.82 467.88,372.4 -255.51,101.74 -726.86,-259.98 -467.88,-372.4zm-408.27 -277.88c229.31,-61.62 297.75,287.3 85.81,340.4 -224.31,56.2 -328.67,-275.14 -85.81,-340.4zm-587.87 12.93c223.66,-114.51 362.94,233.34 151.99,319.86 -215.76,88.49 -356.35,-215.24 -151.99,-319.86zm-1810.13 -1205.2c-386.09,96.23 -57.43,525.85 -432.24,904.32 -226.36,228.57 -300.69,649.1 -142.37,1004.71 221.68,497.93 929.87,933.06 1521.77,1147.98 467.81,169.86 700.47,113.78 914.88,-223.71 349.41,-549.99 606.48,45.21 721.32,161.55 423,428.51 1487.59,-232.75 1841.56,-516.03 226.94,-181.61 471.67,-454.24 544.53,-779.44 115.45,-515.25 -246.6,-790.45 -335.36,-954.56 -118.02,-218.18 -44.29,-355.74 -105.63,-556.76 -48.31,-158.31 -235.21,-259.62 -417.34,-160.79 -201.62,109.42 -110.28,273.84 -215.66,446.83 -74.32,122 -311.67,191.99 -508.2,142.37 -160.94,-40.64 -315.61,-162.55 -420.03,-243.3 -492.19,-380.64 -825.67,-554.03 -1391.4,-163.19 -303.79,209.87 -515.8,475.96 -893.18,406.94 -228.68,-41.82 -269.44,-127.1 -309.25,-349.47 -31.33,-174.98 -166.77,-318.94 -373.4,-267.45z"/>
   <path class="fil1" d="M7238.21 13096.05l4756.8 2.26c29.01,-302.52 -97.37,-737.06 -203.79,-975.68 -131.98,-295.93 -302.15,-520.06 -485.37,-707.85 -354.13,-362.95 -947.5,-700.07 -1687.79,-702.35 -885.28,-2.72 -1550.51,448.85 -1961.76,1025.63 -235.53,330.32 -460.4,941.7 -418.09,1357.99z"/>
  </g>
 </g>
</svg>
