<?xml version="1.0" encoding="UTF-8"?>
<!DOCTYPE svg PUBLIC "-//W3C//DTD SVG 1.1//EN" "http://www.w3.org/Graphics/SVG/1.1/DTD/svg11.dtd">
<!-- Creator: CorelDRAW 2020 (64-Bit) -->
<svg xmlns="http://www.w3.org/2000/svg" xml:space="preserve" width="200mm" height="300mm" version="1.1" style="shape-rendering:geometricPrecision; text-rendering:geometricPrecision; image-rendering:optimizeQuality; fill-rule:evenodd; clip-rule:evenodd"
viewBox="0 0 20000 30000"
 xmlns:xlink="http://www.w3.org/1999/xlink"
 xmlns:xodm="http://www.corel.com/coreldraw/odm/2003">
 <defs>
  <style type="text/css">
   <![CDATA[
    .str0 {stroke:black;stroke-width:423.33;stroke-miterlimit:22.9256}
    .fil0 {fill:none}
    .fil1 {fill:black}
   ]]>
  </style>
 </defs>
 <g id="Capa_x0020_1">
  <metadata id="CorelCorpID_0Corel-Layer"/>
  <rect class="fil0 str0" x="3937.97" y="8085.32" width="11500.56" height="11218.34"/>
  <path class="fil1" d="M8892.73 14650.36c109.65,-37.05 940.68,-15.29 1129.98,-15.28 196.45,0 374.75,-34.38 472.43,103.05 100.25,141.04 1.39,322.27 -128.41,358.19 -118.19,32.71 -935.95,8.73 -1129.05,8.81 -182.28,0.07 -371.44,32.8 -464.93,-99.57 -102.01,-144.42 -7.42,-312.13 119.98,-355.2zm608.76 -897.99c75.05,-33.26 212.2,-32.91 289,5.92l193.67 133.35c79.99,73.59 130.63,332.45 -206,331.15 -194.87,-0.74 -466.68,44.15 -535.71,-113.07 -38.54,-87.76 -6.32,-187.09 52.62,-230.68l206.42 -126.67zm-574.55 -177.29c-148.89,-0.33 -292.95,-17.76 -265.23,-194.81 22.42,-143.24 167.22,-131.72 314.33,-131.93 157.15,-0.22 292.4,5 292.29,163.4 -0.13,180.6 -177.45,163.64 -341.39,163.34zm1181.86 -311.86c76.52,-30.38 358.89,-31.23 427.6,11.66 110.21,68.81 96.98,235.62 -21.33,284.71 -66.76,27.7 -372.16,29.07 -436.08,-8.02 -117.68,-68.29 -105.61,-234.6 29.81,-288.35zm-3209.72 1195.36c101.31,177.55 473.25,232.93 501.47,297.03 58.1,131.92 -454.72,633.97 -503.44,700.61 285.29,265.53 720.64,184.33 522.2,438.61l-303.02 381.95c834.26,99.5 955.84,-581.23 824.08,542.49 180.6,-55.83 541.99,-402.88 686.1,-535.32 95.72,-87.96 170.43,4.09 459.79,61.79 429.38,85.61 929.92,62.84 1349.38,-68.85 125.56,-39.41 131.29,-62.19 216.59,21.42 161.78,158.59 438.86,404.16 675.12,527.07 -12.12,-142.11 -96.67,-500.6 -33.96,-619.22 58.89,-88.37 149.96,-5.96 376.45,37.98 158.84,30.81 314.79,40.07 482.75,35.36 -64.05,-119.22 -377.36,-404.62 -356.83,-506.35 22.9,-113.5 419.17,-135.33 571.04,-316.93l-144.67 -155.15c-106.23,-103.45 -361.65,-415.55 -354.65,-554.49 154.22,-113.12 375.89,-98.89 501.81,-288 -249.13,-298.45 -476,-616.7 -585.82,-1024.23 -94.12,-349.27 9.02,-811.31 -199.31,-1437.34 -275.67,-828.37 -879.44,-1321.32 -1937.61,-1325.01 -1380.22,-4.81 -1987.69,832.58 -2096.99,1987.06 -53.01,559.84 39.55,736.09 -305.62,1326.97 -140.33,240.24 -311.88,417.52 -344.86,472.55z"/>
 </g>
</svg>
