<?xml version="1.0" encoding="UTF-8"?>
<!DOCTYPE svg PUBLIC "-//W3C//DTD SVG 1.1//EN" "http://www.w3.org/Graphics/SVG/1.1/DTD/svg11.dtd">
<!-- Creator: CorelDRAW 2020 (64-Bit) -->
<svg xmlns="http://www.w3.org/2000/svg" xml:space="preserve" width="200mm" height="300mm" version="1.1" style="shape-rendering:geometricPrecision; text-rendering:geometricPrecision; image-rendering:optimizeQuality; fill-rule:evenodd; clip-rule:evenodd"
viewBox="0 0 20000 30000"
 xmlns:xlink="http://www.w3.org/1999/xlink"
 xmlns:xodm="http://www.corel.com/coreldraw/odm/2003">
 <defs>
  <style type="text/css">
   <![CDATA[
    .str0 {stroke:black;stroke-width:423.33;stroke-miterlimit:22.9256}
    .fil0 {fill:none}
    .fil1 {fill:black}
   ]]>
  </style>
 </defs>
 <g id="Capa_x0020_1">
  <metadata id="CorelCorpID_0Corel-Layer"/>
  <rect class="fil0 str0" x="3937.97" y="8085.32" width="11500.56" height="11218.34"/>
  <g id="_2059668361424">
   <path class="fil1" d="M7310.15 13798.47c126.98,109.34 456.52,196.53 854.64,686.14 328.49,404 528.53,933.01 618.98,1458.18 17.32,100.53 36.94,399.45 66.07,460.12 17.54,20.4 116.27,31.93 146.27,35.68 58.11,7.28 103.57,17.34 161.76,10.68 22.6,-333.27 2,-1503.49 2,-1928.49 0,-324.97 35.07,-624.67 -166.68,-794.83 -355.24,-299.6 -1131.05,19.3 -1272.65,-259.14 -93.42,-183.69 45.95,-261.98 214.11,-262.48l3276.79 -1.55c170.83,-0.12 377.58,-23.56 372.99,172.3 -4.76,203.29 -208,216.1 -337.76,216.11l-528.51 0.05c-693.65,0.05 -598.2,523.32 -598.96,1123.32 -0.4,304.96 -15.25,1545.37 4.48,1740.78l306.67 -35.74c29.23,-144.21 35.13,-304.85 59.14,-452.72 101.82,-626.78 395.12,-1334.12 865.46,-1743.2 91.36,-79.45 175.94,-152.06 283.6,-227.38 88.52,-61.92 256.72,-137.37 327.05,-197.83l3.02 -669.45c0,-226.02 -124.23,-245.88 -334.37,-245.88l-3400.11 -1.24c-194.18,-0.03 -753.37,-51.18 -860.61,56.21 -101.17,101.29 -75.73,670.5 -63.38,860.36z"/>
   <path class="fil1" d="M9388.36 10730.39c-892.64,106.93 -1521.86,654.7 -1815.64,1296.92 -58.94,128.84 -222.13,417.15 27.49,519.93 108.98,44.88 3471.72,15.46 3857.92,17.38 142.02,0.71 235.03,9.64 305.98,-80.97 148.09,-189.17 -156.08,-661.54 -261.83,-808.58 -372.68,-518.14 -1122.95,-1063.37 -2113.92,-944.68z"/>
   <path class="fil1" d="M6686.19 10451.22l1.34 1849.8c0.18,433.89 -176.84,-64.47 -176.33,634.21l-0.31 1216.05c-0.58,151.94 5.21,222.58 104.18,297.4 105.22,79.54 411.56,131.2 411.56,-297.86l-0.18 -1409.37c-3.77,-210.56 -78.88,-184.9 -169.58,-281.88l2.77 -2020.22c251.08,-10.61 561.8,55.63 661.62,-119.52 60.83,-106.72 22.1,-241.27 -37.28,-298.94 -100.3,-97.4 -568.44,-67.55 -729.68,-67.41 -314.16,0.27 -343.86,341.21 -148.17,452.01 46.75,26.46 41.67,13.98 80.06,45.73z"/>
   <path class="fil1" d="M8474.9 16346.14c32.76,-550.41 -310.73,-1354.98 -689.64,-1782.2 -55.18,-62.22 -366.18,-347.66 -475.87,-355.39 -10.82,267.37 -1.68,553.61 -1.62,823.12 0.11,537.51 -135.26,846.06 520,1129.07 143.89,62.15 495.8,173.8 647.13,185.4z"/>
   <path class="fil1" d="M10797.91 16342.87c173.14,7.71 1178.41,-233.84 1178.32,-765.07l-15.13 -1382.71c-17.59,18.05 -188.02,125.01 -230.74,157.75 -220.21,168.75 -447.39,443.69 -575.51,692.84 -186.36,362.38 -335.53,835.72 -356.94,1297.19z"/>
  </g>
 </g>
</svg>
